# xmcd
#
# Track frame offsets:
#	150
#	12825
#	24605
#	33600
#	47397
#	64925
#	78710
#	90907
#	102715
#	112775
#	122487
#	137152
#	148542
#	161595
#	172770
#
# Disc length: 2435 seconds
#
# Revision: 0
# Processed by: cddbd v1.5.1PL0 Copyright (c) Steve Scherf et al.
# Submitted via: dBpowerAMP V4.0
#
DISCID=bb09810f
DTITLE=Various  - Country Love Classics [CD One)
DYEAR=1900
DGENRE=Country
TTITLE0=I See The Want In Your Eyes - Conway Twitty
TTITLE1=Heaven Is My Woman's Love - Col Joye
TTITLE2=Blue Blue Day - Don Gibson
TTITLE3=Danny's Song - Anne Murray
TTITLE4=Somethings Burnin' - Kenny Rogers
TTITLE5=A Good Year For Roses - George Jones
TTITLE6=Linda On My Mind - Conway Twitty
TTITLE7=I Don't Wanna Play House - Tammy Wynette
TTITLE8=A Thing Called Love - Jimmy Dean
TTITLE9=Congratulations - Faron Young
TTITLE10=I Can't Stop Loving You - Don Gibson
TTITLE11=It Wasn't God Who Made Honky Tonk Angels - Kitty Wells
TTITLE12=Things Have Gone To Pieces - George Jones
TTITLE13=Walkin' After Midnight - Patsy Cline
TTITLE14=A New Way To Cry - Willie Nelson
EXTD=
EXTT0=
EXTT1=
EXTT2=
EXTT3=
EXTT4=
EXTT5=
EXTT6=
EXTT7=
EXTT8=
EXTT9=
EXTT10=
EXTT11=
EXTT12=
EXTT13=
EXTT14=
PLAYORDER=
